<?xml version="1.0" encoding="utf-8"?>
<!-- Generator: Adobe Illustrator 27.5.0, SVG Export Plug-In . SVG Version: 6.00 Build 0)  -->
<svg version="1.1" id="Layer_1" xmlns="http://www.w3.org/2000/svg" xmlns:xlink="http://www.w3.org/1999/xlink" x="0px" y="0px"
	 viewBox="0 0 222.573 354.703" style="enable-background:new 0 0 222.573 354.703;" xml:space="preserve">
<g>
	<g>
		<path style="fill:#4B1E0A;" d="M209.005,11.623c-3.429-1.201-7.489-1.507-11.307-2.276c-28.118,0.075-63.102,5.154-73.962,34.785
			c-5.532,15.103-5.602,32.58-6.907,48.435c-0.451,5.469-0.734,10.934-0.94,16.405c-0.004,0-0.004,0-0.004,0
			c-19.829,1.58-39.67,2.981-59.489,4.656c-8.918,0.757-17.916,1.705-26.678,3.593c-5.63,1.214-13.489,3.299-17.129,8.186
			c-4.446,5.97-3.084,10.395,1.498,13.683c2.713,28.59,6.944,56.947,10.561,85.436c3.58,28.146,7.353,56.803,13.639,84.473
			c1.552,6.841,2.038,13.441,5.468,18.61c-0.206,0.377-0.149,0.917,0.33,1.224c0.388,0.249,0.792,0.471,1.184,0.714
			c1.325,1.482,2.966,2.821,5.08,3.962c11.697,6.307,24.396,9.833,37.572,11.16c5.248,0.53,10.61,0.749,16.003,0.672
			c5.392,0.077,10.755-0.142,16.002-0.672c13.177-1.327,25.878-4.854,37.575-11.16c2.112-1.141,3.755-2.479,5.077-3.962
			c0.393-0.243,0.797-0.465,1.185-0.714c0.48-0.307,0.536-0.847,0.329-1.224c3.433-5.17,3.917-11.77,5.471-18.61
			c6.284-27.67,10.059-56.326,13.637-84.473c3.758-29.571,8.182-58.996,10.874-88.694c5.246-4.663,4.956-11.875-3.259-16.051
			c-7.47-3.797-15.211-4.743-23.334-6.3c-9.369-1.797-19.078-2.835-28.625-2.94c0.212-1.913,0.408-3.83,0.578-5.753
			c1.191-13.506,1.431-27.401,5.011-40.543c3.272-12.022,10.079-23.939,21.513-29.703c5.758-2.903,12.494-3.939,19.424-4.436
			c0.153,0.085,0.304,0.172,0.455,0.259c0.393-0.073,0.783-0.146,1.174-0.214c0.036-0.054,0.076-0.102,0.102-0.158
			c0.441-0.028,0.883-0.049,1.325-0.069c2.614-0.412,5.262-0.719,8.027-0.827c2.201-0.083,5.017,0.132,7.652,0.014
			c0.862-0.075,1.712-0.167,2.557-0.268c0.683-0.116,1.332-0.271,1.926-0.486c0.75-0.827,1.48-1.669,2.182-2.538
			c2.082-2.604,2.417-7.637,1.28-9.989C211.255,14.168,210.217,12.745,209.005,11.623z"/>
		<path style="fill:#FFFFFF;" d="M120.905,100.619c0.634-6.581,1.107-13.229,1.672-19.872c1.252,3.519,3.027,6.831,5.389,9.847
			c1.835,2.338,5.498,7.73,8.836,8.147c-0.398,6.667-0.604,13.333-0.916,20.009c-3.645-2.772-6.929-5.946-9.932-9.404
			c-1.712-1.971-3.627-4.211-5.255-6.588C120.767,102.046,120.838,101.334,120.905,100.619z"/>
		<path style="fill:#ED1C24;" d="M120.402,105.778c0.918,1.37,1.898,2.67,2.791,3.855c3.207,4.262,7.349,8.913,12.527,10.671
			c0.029,0.009,0.059,0.003,0.09,0.01c-0.274,5.288-1.032,10.635-1.423,15.944c-1.663-1.104-2.783-2.813-4.174-4.266
			c-2.321-2.425-4.317-5.033-6.149-7.842c-1.718-2.642-3.144-5.51-4.644-8.322C119.754,112.479,120.079,109.128,120.402,105.778z"/>
		<path style="fill:#FFFFFF;" d="M118.505,124.775c0.154-1.429,0.293-2.861,0.438-4.29c1.219,2.413,2.719,4.705,4.107,6.709
			c2.393,3.453,6.939,8.293,11.284,9.769c-0.144,2.149-0.226,4.292-0.172,6.417c-6.03,0.461-12.079,0.843-18.129,1.062
			C115.857,137.997,117.824,131.124,118.505,124.775z"/>
		<path style="fill:#B0E7F7;" d="M30.495,122.666c13.004-5.132,27.842-6.475,41.583-8.319c14.555-1.955,29.194-3.264,43.795-4.852
			c-0.158,4.293-0.273,8.588-0.357,12.886c-0.136,7.052-1.367,14.998-0.321,22.096c-15.01,0.518-30.04,0.217-44.859-1.233
			c-13.047-1.274-26.057-3.996-38.793-7.069c-3.72-0.896-7.503-2.048-10.82-3.997C14.804,128.7,27.544,123.829,30.495,122.666z"/>
		<path style="fill:#B0E7F7;" d="M169.299,293.228c-1.089,6.849-2.396,13.64-3.793,20.432c-1.273,6.186-1.803,11.914-7.842,15.49
			c-0.326,0.192-0.678,0.359-1.009,0.549c-8.958,3.391-17.864,6.633-27.31,8.74c-8.255,1.841-16.704,2.636-25.162,2.732
			c-0.086-0.001-0.175,0-0.26,0c-0.085,0-0.172-0.001-0.261,0c-8.458-0.097-16.907-0.892-25.16-2.732
			c-9.447-2.107-18.352-5.35-27.31-8.74c-0.332-0.189-0.681-0.356-1.007-0.549c-6.041-3.576-6.571-9.304-7.844-15.49
			c-1.396-6.792-2.704-13.583-3.793-20.432c-8.114-51.089-14.271-102.454-23.354-153.396c14.119,8.691,51.801,8.731,57.003,8.814
			c18.725,0.302,37.418-0.433,56.096-1.724c19.483-1.346,41.05-1.771,59.761-7.758c2.022-0.648,3.76-1.544,5.175-2.608
			C183.82,188.572,177.586,241.047,169.299,293.228z"/>
		<g>
			<path style="fill:#F7941E;" d="M98.089,198.417c-43.255,2.612-64.973-4.991-75.146-11.001
				c5.333,35.25,10.013,70.595,15.606,105.812c1.089,6.849,2.397,13.64,3.793,20.432c1.272,6.186,1.803,11.914,7.844,15.49
				c0.326,0.192,0.675,0.359,1.007,0.549c8.958,3.391,17.863,6.633,27.31,8.74c8.253,1.841,16.702,2.636,25.16,2.732
				c0.089-0.001,0.176,0,0.261,0c0.085,0,0.174-0.001,0.26,0c8.458-0.097,16.907-0.892,25.162-2.732
				c9.445-2.107,18.352-5.35,27.31-8.74c0.331-0.189,0.683-0.356,1.009-0.549c6.039-3.576,6.568-9.304,7.842-15.49
				c1.396-6.792,2.704-13.583,3.793-20.432c5.867-36.942,10.722-74.028,16.386-110.999
				C170.67,189.044,144.449,195.617,98.089,198.417z"/>
			<path style="fill:#F7651E;" d="M186.448,181.17c0.243,7.195-39.162,17.533-84.464,19.071
				c-45.297,1.538-79.787-6.466-80.032-13.664c-0.244-7.193,35.754-14.572,81.051-16.11
				C148.305,168.929,186.204,173.974,186.448,181.17z"/>
		</g>
		<path style="fill:#B0E7F7;" d="M179.139,119.708c3.258,0.875,6.253,2.293,9.121,4.069c4.548,1.847,4.284,5.6-0.79,11.267
			c-2.279,1.038-4.641,1.826-7.081,2.361c-6.679,1.729-13.623,2.557-20.454,3.403c-8.376,1.035-16.838,1.882-25.332,2.542
			c0.233-2.035,0.495-4.066,0.761-6.094c0.016,0.002,0.032,0.009,0.052,0.012c0.188,0.04,0.333-0.297,0.136-0.376
			c-0.049-0.019-0.091-0.045-0.136-0.066c1.056-8.101,2.264-16.173,3.21-24.304C152.084,115.13,165.857,116.146,179.139,119.708z"/>
		<path style="fill:#ED1C24;" d="M137.17,93.296c-0.069,0.878-0.118,1.76-0.179,2.639c-6.395-3.75-11.122-11.104-14.159-18.107
			c0.754-8.357,1.728-16.688,3.441-24.849c0.279,0.906,0.596,1.736,0.9,2.396c2.326,5.021,6.951,12.809,12.397,15.52
			C138.238,78.252,137.761,85.783,137.17,93.296z"/>
		<path style="fill:#FFFFFF;" d="M144.078,55.536c-1.81,4.14-3.063,8.394-3.982,12.713c-3.156-3.094-6.183-6.226-8.814-9.836
			c-1.4-1.923-3.338-5.055-4.365-8.185c2.02-7.855,5.452-14.046,10.267-19.067c-0.134,2.692,0.882,5.663,1.654,7.984
			c1.418,4.266,3.951,8.876,7.273,12.109C145.378,52.684,144.699,54.118,144.078,55.536z"/>
		<path style="fill:#ED1C24;" d="M147.593,48.512c-3.642-5.833-9.136-11.466-9.089-18.646c1.949-1.856,4.114-3.536,6.468-5.085
			c2.168,1.549,4.534,2.842,6.559,4.682c2.203,2,3.946,4.42,5.864,6.677C153.445,39.56,150.208,43.931,147.593,48.512z"/>
		<path style="fill:#FFFFFF;" d="M166.946,30.553c-3.188,1.063-6.052,2.732-8.63,4.807c-1.585-2.634-3.567-5.044-5.742-7.188
			c-1.533-1.514-3.529-3.487-5.714-4.583c2.661-1.597,5.547-3.046,8.681-4.366c2.038-0.857,4.079-1.605,6.126-2.276
			c3.514,1.214,6.932,2.325,10.36,4.182c3.236,1.753,6.087,4.066,9.041,6.188C176.166,28.043,171.389,29.067,166.946,30.553z"/>
		<path style="fill:#ED1C24;" d="M184.66,26.852c-5.605-5.354-13.169-9.225-20.792-10.597c6.931-2.066,13.92-3.194,21.028-4.02
			c4.621,0.666,9.156,2.67,12.803,5.468c1.64,1.257,3.178,2.448,4.656,3.899c1.292,1.271,2.106,2.74,2.996,4.191
			C198.625,25.803,191.573,26.05,184.66,26.852z"/>
		<path style="fill:#FFFFFF;" d="M208.402,25.788c-0.245-0.001-0.504,0.002-0.75,0.002c-1.134-5.253-4.721-8.052-9.492-11.137
			c-2.047-1.321-4.646-2.453-7.333-3.054c3.474-0.34,6.977-0.649,10.527-0.993c0.023,0,0.038-0.014,0.059-0.017
			c2.344,0.557,4.395,2.054,6.092,4.073C209.9,17.512,211.773,23.088,208.402,25.788z"/>
		<path style="fill:#FFFFFF;" d="M28.356,178.347c0,0,12.582-15.778,22.194-14.999c9.612,0.779,16.302,16.755,18.153,19.809
			c1.852,3.056,9.906-12.275,27.833-7.599c17.928,4.677,16.011,6.073,22.296-1.25c6.284-7.322,24.991-21.352,39.541-15.896
			c14.55,5.456,18.707,8.315,3.897,13.251c-14.811,4.936-14.445,4.761-20.084,5.368c-5.639,0.607-9.274,2.946-0.441,3.726
			c8.833,0.779,4.158,7.015-10.912,11.432c-15.07,4.416-53.782,9.614-70.411,4.936c-4.417-2.858-7.168-8.14-2.285-13.294
			C63.022,178.677,37.858,187.11,28.356,178.347z"/>
		<g>
			<path style="fill:#FFFFFF;" d="M103.341,228.506c-0.573-0.342-1.33,0.025-1.455,0.696c-0.007,0.034-0.011,0.076-0.018,0.114
				c-0.344,0.361-0.574,0.768-0.769,1.311c-0.082,0.231,0.054,0.567,0.297,0.641c0.773,0.226,1.44-0.005,1.944-0.639
				C103.772,230.08,104.066,228.941,103.341,228.506z"/>
			<path style="fill:#FFFFFF;" d="M121.379,239.503c-1.215,0-1.907,2.176-0.508,2.176
				C122.088,241.679,122.778,239.503,121.379,239.503z"/>
			<path style="fill:#FFFFFF;" d="M84.532,282.682c-0.623-2.264-3.201-2.156-4.561-0.656c-0.188,0.205-0.338,0.431-0.467,0.663
				c-0.573,0.469-0.967,1.236-1.17,1.886c-0.382,1.211-0.457,2.791,0.486,3.749c1.307,1.334,3.232-0.038,4.201-1.009
				C84.175,286.162,84.975,284.289,84.532,282.682z"/>
			<path style="fill:#FFFFFF;" d="M92.08,290.421c-0.338-0.129-0.822,0.192-0.923,0.578c-0.082,0.3-0.118,0.554,0.036,0.838
				c0.125,0.226,0.403,0.285,0.634,0.249c0.404-0.068,0.611-0.346,0.819-0.669C93.019,290.839,92.664,290.24,92.08,290.421z"/>
			<path style="fill:#FFFFFF;" d="M142.377,269.904c-0.379-2.009-2.306-3.139-4.196-3.317c-2.078-0.196-4.441,0.911-5.609,2.634
				c-1.519,2.246-2.237,5.576,0.082,7.576c0.769,0.663,1.927,0.972,2.92,0.991c1.868,0.038,3.4-0.669,4.649-2.06
				c0.047-0.054,0.087-0.114,0.131-0.172C141.871,274.103,142.784,272.071,142.377,269.904z"/>
			<path style="fill:#FFFFFF;" d="M160.015,237.257c-1.169-3.684-5.918-3.411-8.029-0.741c-0.125,0.154-0.217,0.328-0.325,0.493
				c-0.987,0.79-1.691,1.824-2.023,3.072c-0.396,1.483,0.109,2.897,1.107,3.981c1.161,1.257,3.168,1.195,4.623,0.621
				C158.167,243.576,161.046,240.496,160.015,237.257z"/>
			<g>
				<path style="fill:#FFFFFF;" d="M45.025,238.618c0.022-0.014,0.038-0.028,0.063-0.042
					C45.02,238.607,45.01,238.618,45.025,238.618z"/>
				<path style="fill:#FFFFFF;" d="M47.456,238.268c-0.548-0.069-1.107-0.122-1.766,0.125c0.259-0.098-0.603,0.222-0.666,0.226
					c-0.254,0.132-0.446,0.313-0.683,0.469c0.002,0,0.006,0.002,0.007,0.003c-0.675,0.549-1.025,1.65-0.275,2.281
					c0.436,0.368,0.958,0.605,1.661,0.636c0.38,0.014,0.713-0.085,1.025-0.23c0.299-0.027,0.6-0.154,0.823-0.415
					c0.073-0.087,0.101-0.194,0.154-0.293c0.143-0.149,0.278-0.304,0.405-0.469C48.773,239.769,48.679,238.418,47.456,238.268z"/>
			</g>
			<path style="fill:#FFFFFF;" d="M111.86,317.113c-1.432,0.087-2.67,1.792-1.479,2.989c0.097,0.098,0.198,0.178,0.3,0.25
				c0.002,0.518,0.185,1.033,0.646,1.466c0.253,0.237,0.679,0.212,0.969,0.072c1.094-0.517,2.09-1.621,1.958-2.916
				C114.13,317.753,113.039,317.037,111.86,317.113z"/>
			<path style="fill:#FFFFFF;" d="M126.307,315.336c-0.051,0.018-0.1,0.035-0.148,0.052c-0.93,0.314-1.32,1.959-0.269,2.365
				c0.047,0.017,0.092,0.034,0.137,0.052c0.816,0.315,1.689-0.41,1.87-1.183C128.143,315.555,127.219,315.027,126.307,315.336z"/>
			<path style="fill:#FFFFFF;" d="M69.939,313.51c-0.304-0.194-0.596-0.302-0.973-0.326c-0.031-0.007-0.058-0.016-0.089-0.022
				c-0.002,0.008-0.004,0.016-0.005,0.023c-0.132-0.005-0.261-0.01-0.419,0.006c-1.779,0.17-2.188,2.972-0.561,3.34
				c-0.192,0.754-0.159,1.516,0.391,2.245c0.229,0.304,0.625,0.4,0.968,0.222c1.078-0.558,1.87-1.641,2.043-2.854
				C71.479,314.858,70.903,313.992,69.939,313.51z"/>
			<g>
				<path style="fill:#FFFFFF;" d="M60.354,293.693c-0.013,0.005-0.022,0.016-0.033,0.022
					C60.366,293.69,60.368,293.688,60.354,293.693z"/>
				<path style="fill:#FFFFFF;" d="M60.741,290.564c-0.111,0.03-0.179,0.022-0.456,0.023c-0.563,0-1.069,0.228-1.531,0.526
					c-0.882,0.567-1.319,1.495-1.399,2.509c-0.056,0.712,0.619,1.031,1.21,0.978c0.261-0.02,0.477-0.087,0.685-0.251
					c0.045-0.033,0.096-0.098,0.148-0.155c0.089-0.048,0.176-0.104,0.263-0.143c0.083-0.038,0.628-0.328,0.694-0.357
					c0.599-0.359,1.121-0.943,1.4-1.589C62.062,291.391,61.705,290.315,60.741,290.564z"/>
			</g>
		</g>
		<path style="fill:#4B1E0A;" d="M138.071,189.501c-14.494,3.821-27.905,7.23-43.005,7.838c-7.333,0.295-14.699,0.341-22.03,0.031
			c-3.706-0.156-10.377-0.663-14.227-2.972c4.517-2.707,8.45-6.177,12.566-9.359c0.191-0.099,0.368-0.232,0.514-0.397
			c4.028-3.072,8.27-5.819,13.451-7.239c14.829-4.065,23.953,6.448,36.442,11.453c1.266,0.507,2.286-1.316,1.431-2.238
			c-9.456-10.177-18.331-19.314-33.145-17.002c-7.925,1.239-13.465,5.528-18.511,10.575c-2.321-8.612-9.034-16.645-17.134-19.953
			c-4.298-1.754-8.487-0.24-11.983,2.336c-5.163,3.802-10.65,10.159-14.48,15.347c-0.588-0.719-1.056-1.601-1.415-2.717
			c-0.043-0.136-0.241-0.044-0.228,0.074c0.3,2.889,1.128,4.823,3.728,6.335c2.859,1.661,6.853,1.776,10.043,1.48
			c0.819-0.076,1.136-1.521,0.181-1.628c-2.559-0.295-5.152-0.475-7.672-1.034c-1.833-0.403-3.203-1.039-4.24-2.084
			c0.289-0.081,0.3-0.132,0.657-0.529c0.116-0.127-0.029-0.286-0.172-0.189c7.802-5.336,15.59-18.257,26.27-11.271
			c6.192,4.05,9.04,11.229,13.593,16.801c-3.438,3.663-6.843,7.439-10.794,10.634c-2.505-1.96-3.158-5.004,0.496-9.743
			c0.161-0.212-0.089-0.399-0.268-0.217c-11.961,12.233,2.176,16.865,13.928,17.702c22.366,1.592,45.513-2.121,66.18-10.802
			C138.842,190.481,138.857,189.294,138.071,189.501z"/>
		<path style="fill:#4B1E0A;" d="M176.616,161.674c-0.658,0.386-1.287,0.794-1.901,1.209c-1.361-2.591-3.694-3.177-6.692-3.808
			c-6.682-1.409-12.847-4.34-19.738-4.63c-10.69-0.455-24.247,11.211-29.906,19.355c-0.243,0.349,0.065,0.804,0.455,0.508
			c7.668-5.82,16.929-12.381,26.304-14.971c5.766-1.594,12.445,2.132,17.936,3.583c2.839,0.75,5.429,1.462,8.101,2.462
			c-1.861,1.326-3.768,2.599-6.035,3.57c-7.55,3.234-14.747,6.484-22.926,7.839c-0.114,0.018-0.172,0.227-0.025,0.239
			c8.371,0.726,16.08-2.149,23.857-4.882c4.406-1.547,12.18-3.819,12.163-9.55C178.206,161.805,177.329,161.256,176.616,161.674z"/>
	</g>
	<g>
		<path style="fill:#B0E7F7;" d="M188.055,139.164c-18.711,5.988-40.277,6.413-59.761,7.758
			c-18.678,1.291-37.371,2.025-56.096,1.724c-5.203-0.083-42.884-0.123-57.003-8.814c0.465,2.609,0.893,5.224,1.344,7.835
			c18.211,4.71,64.169,13.317,136.465,5.236c9.018-1.127,4.497,9.878-2.26,91.16c-6.757,81.281-25.355,90.3-53.53,90.862
			c-20.312,0.406-40.329-5.34-52.667-12.378c1.049,2.584,2.681,4.853,5.639,6.603c0.326,0.192,0.675,0.359,1.007,0.549
			c8.958,3.391,17.863,6.633,27.31,8.74c8.253,1.841,16.702,2.636,25.16,2.732c0.089-0.001,0.176,0,0.261,0
			c0.085,0,0.174-0.001,0.26,0c8.458-0.097,16.907-0.892,25.162-2.732c9.445-2.107,18.352-5.35,27.31-8.74
			c0.331-0.189,0.683-0.356,1.009-0.549c6.039-3.576,6.568-9.304,7.842-15.49c1.396-6.792,2.704-13.583,3.793-20.432
			c8.287-52.181,14.521-104.655,23.931-156.672C191.814,137.62,190.077,138.516,188.055,139.164z"/>
	</g>
	<path style="fill:#FFFFFF;" d="M34.415,159.2c0,0,10.666,81.773,17.776,136.882c4.147,29.036-4.147,0.594-9.481-34.96
		C37.377,225.568,30.267,146.163,34.415,159.2z"/>
	<path style="fill:#FFFFFF;" d="M56.155,315.809c0.672,2.347,0.516,4.449-0.35,4.695c-0.862,0.248-2.109-1.451-2.783-3.797
		c-0.671-2.347-0.515-4.449,0.35-4.695C54.234,311.764,55.481,313.463,56.155,315.809z"/>
	<g>
		<path style="fill:#83D7EA;" d="M188.055,139.164c-3.045,0.974-6.174,1.789-9.349,2.496c-2.996,27.2-12.173,108.377-20.74,162.012
			c-5.429,27.98-24.728,35.939-58.224,37.369c1.307,0.051,2.612,0.114,3.921,0.13c0.089-0.001,0.176,0,0.261,0
			c0.085,0,0.174-0.001,0.26,0c8.458-0.097,16.907-0.892,25.162-2.732c9.445-2.107,18.352-5.35,27.31-8.74
			c0.331-0.189,0.683-0.356,1.009-0.549c6.039-3.576,6.568-9.304,7.842-15.49c1.396-6.792,2.704-13.583,3.793-20.432
			c8.287-52.181,14.521-104.655,23.931-156.672C191.814,137.62,190.077,138.516,188.055,139.164z"/>
	</g>
	<path style="fill:#B6B7B7;" d="M212.06,15.832c0,0-64.976-1.736-73.503,33.535c-8.527,35.271-13.565,94.964-13.565,94.964
		l9.61-0.981c0,0,3.944-71.215,11.508-92.096c4.851-8.864,10.666-24.369,57.954-23.981C208.715,27.272,213.855,23.772,212.06,15.832
		z"/>
	<g>
		<path style="fill:#B0E7F7;" d="M115.194,144.477c-0.587-3.981-0.452-8.225-0.202-12.432c-2.918-0.066-5.878-0.102-8.879-0.102
			c-26.198,0-49.484,2.585-64.327,6.592c9.434,2.059,18.98,3.776,28.548,4.709C85.154,144.694,100.185,144.995,115.194,144.477z"/>
		<path style="fill:#B0E7F7;" d="M135.415,136.825c0.045,0.021,0.087,0.047,0.136,0.066c0.197,0.08,0.052,0.417-0.136,0.376
			c-0.02-0.003-0.036-0.01-0.052-0.012c-0.266,2.028-0.528,4.059-0.761,6.094c8.494-0.66,16.956-1.507,25.332-2.542
			c4.123-0.511,8.28-1.04,12.402-1.738c-9.047-2.653-21.673-4.734-36.42-5.946C135.75,134.356,135.576,135.591,135.415,136.825z"/>
	</g>
	<path style="fill:#F7941E;" d="M151.363,326.346c0,6.267-20.944,11.349-46.78,11.349c-25.835,0-46.78-5.082-46.78-11.349
		c0-6.269,20.945-11.35,46.78-11.35C130.419,314.996,151.363,320.077,151.363,326.346z"/>
</g>
</svg>
